<svg id="Capa_1" data-name="Capa 1" xmlns="http://www.w3.org/2000/svg" viewBox="0 0 32 32">
  <defs>
    <style>
      .cls-1 {
        fill: #ff5b00;
      }

      .cls-2 {
        fill: #ff9100;
      }
    </style>
  </defs>
  <title>favicon</title>
  <rect width="32" height="32" rx="3.19"/>
  <path class="cls-1" d="M15.58,16.57h-3l-.05-.07,5.7-6.5.06,0-2.07,5.4h3.19l0,.07L13.3,22l-.07,0Z"/>
  <path class="cls-2" d="M20.64,22.42l2.21,2.22a10.9,10.9,0,0,1-10.7,1.61c-4.95-1.89-7.26-5.71-7.41-11H1L6.44,10l5.21,5.22H7.87a8.15,8.15,0,0,0,12.77,7.17Z"/>
  <path class="cls-2" d="M27.27,16.74H31L25.55,22,20.3,16.75h3.84a7.92,7.92,0,0,0-3.37-7c-3.08-2.17-6.26-2-9.42-.13L9.16,7.36a10.87,10.87,0,0,1,10.6-1.64C24.77,7.58,27.11,11.42,27.27,16.74Z"/>
</svg>
