<svg id="Capa_1" data-name="Capa 1" xmlns="http://www.w3.org/2000/svg" viewBox="0 0 277 35">
  <defs>
    <style>
      .cls-1 {
        fill: #ff5b00;
      }

      .cls-2 {
        fill: #ff9100;
      }

      .cls-3 {
        font-size: 31.32px;
        fill: #fff;
        font-family: LeagueGothic-Regular, League Gothic;
      }

      .cls-4 {
        letter-spacing: 0em;
      }

      .cls-5 {
        letter-spacing: 0em;
      }

      .cls-6 {
        letter-spacing: 0em;
      }

      .cls-7 {
        letter-spacing: -0.01em;
      }

      .cls-8 {
        letter-spacing: -0.01em;
      }

      .cls-9 {
        letter-spacing: 0em;
      }
    </style>
  </defs>
  <title>logo277x35px</title>
  <g>
    <path class="cls-1" d="M18.75,18.24H14.9l-.07-.1,7.35-8.39.09,0-2.68,7H23.7l.06.1-8,8.38-.09,0Z"/>
    <path class="cls-2" d="M25.28,25.8l2.85,2.87c-4.24,3-8.89,3.95-13.8,2.07C7.94,28.3,5,23.36,4.76,16.55H0L7,9.78l6.73,6.75H8.81A10.52,10.52,0,0,0,25.28,25.8Z"/>
    <path class="cls-2" d="M33.84,18.46h4.75l-7,6.79-6.76-6.78h4.94a10.27,10.27,0,0,0-4.34-9.12c-4-2.79-8.07-2.62-12.16-.16L10.47,6.34c4.19-3,8.81-3.95,13.68-2.13C30.61,6.62,33.63,11.58,33.84,18.46Z"/>
  </g>
  <text class="cls-3" transform="translate(42.8 27.17)"><tspan class="cls-4">r</tspan><tspan x="7.58" y="0">e</tspan><tspan class="cls-5" x="17.66" y="0">e</tspan><tspan x="27.69" y="0">mplaz</tspan><tspan class="cls-6" x="77.73" y="0">a</tspan><tspan x="87.76" y="0">r </tspan><tspan class="cls-7" x="100.28" y="0">b</tspan><tspan class="cls-8" x="110.59" y="0">a</tspan><tspan x="120.48" y="0">t</tspan><tspan class="cls-9" x="128.16" y="0">e</tspan><tspan x="138.18" y="0">rí</tspan><tspan class="cls-4" x="151.55" y="0">a</tspan><tspan x="161.54" y="0">s de UPS</tspan></text>
</svg>
